<?xml version="1.0" standalone="no"?><!DOCTYPE svg PUBLIC "-//W3C//DTD SVG 1.1//EN" "http://www.w3.org/Graphics/SVG/1.1/DTD/svg11.dtd"><svg t="1765896620897" class="icon" viewBox="0 0 1024 1024" version="1.1" xmlns="http://www.w3.org/2000/svg" p-id="6665" xmlns:xlink="http://www.w3.org/1999/xlink" width="200" height="200"><path d="M367.093333 425.44m5.333334 0l64 0q5.333333 0 5.333333 5.333333l0 294.933334q0 5.333333-5.333333 5.333333l-64 0q-5.333333 0-5.333334-5.333333l0-294.933334q0-5.333333 5.333334-5.333333Z" p-id="6666"></path><path d="M582.24 425.44m5.333333 0l64 0q5.333333 0 5.333334 5.333333l0 294.933334q0 5.333333-5.333334 5.333333l-64 0q-5.333333 0-5.333333-5.333333l0-294.933334q0-5.333333 5.333333-5.333333Z" p-id="6667"></path><path d="M917.333333 244.533333a5.333333 5.333333 0 0 0-5.333333-5.333333H112a5.333333 5.333333 0 0 0-5.333333 5.333333v64a5.333333 5.333333 0 0 0 5.333333 5.333334h88.32a5.333333 5.333333 0 0 1 5.333333 5.333333V912a5.333333 5.333333 0 0 0 5.333334 5.333333h601.973333a5.333333 5.333333 0 0 0 5.333333-5.333333V319.2a5.333333 5.333333 0 0 1 5.333334-5.333333H912a5.333333 5.333333 0 0 0 5.333333-5.333334zM738.293333 842.666667H285.706667a5.333333 5.333333 0 0 1-5.333334-5.333334V319.2a5.333333 5.333333 0 0 1 5.333334-5.333333h452.586666a5.333333 5.333333 0 0 1 5.333334 5.333333V837.333333a5.333333 5.333333 0 0 1-5.333334 5.333334z" p-id="6668"></path><path d="M320 106.666667m5.333333 0l373.333334 0q5.333333 0 5.333333 5.333333l0 64q0 5.333333-5.333333 5.333333l-373.333334 0q-5.333333 0-5.333333-5.333333l0-64q0-5.333333 5.333333-5.333333Z" p-id="6669"></path></svg>