<?xml version="1.0" encoding="utf-8" ?>
<svg xmlns="http://www.w3.org/2000/svg" xmlns:xlink="http://www.w3.org/1999/xlink" width="24" height="24" viewBox="0 0 24 24">
	<defs>
		<clipPath id="clipPath4351128798">
			<path d="M0 0L24 0L24 24L0 24L0 0Z" fill-rule="nonzero" transform="matrix(1 0 0 1 0 0)"/>
		</clipPath>
	</defs>
	<g clip-path="url(#clipPath4351128798)">
		<path d="M13.9795 7.76062C13.6892 6.98975 13.3339 6.25004 12.9138 5.5415C12.4936 4.83296 12.0149 4.16642 11.4778 3.54187C9.61875 1.38984 7.17422 0 5.25 0C5.00496 0.000182986 4.80745 0.0971637 4.65746 0.290942C4.50748 0.48472 4.46311 0.70024 4.52437 0.9375C5.17453 3.42188 3.82687 5.48766 2.40047 7.67438C1.21875 9.48563 0 11.3564 0 13.5C0 17.6353 3.36469 21 7.5 21C11.6353 21 15 17.6353 15 13.5C15 11.4703 14.6569 9.53953 13.9795 7.76062ZM9.01547 18.1261C8.53125 18.6417 7.92422 18.75 7.5 18.75C7.07578 18.75 6.46875 18.6417 5.98453 18.1261C5.50031 17.6105 5.25 16.7925 5.25 15.75C5.25 14.5716 5.66344 13.6744 6.06281 12.8072C6.29484 12.3038 6.53156 11.7914 6.67219 11.243C6.70453 11.1138 6.78333 11.0265 6.90861 10.9813C7.03388 10.9361 7.15023 10.9528 7.25766 11.0316C7.47202 11.1974 7.67406 11.3771 7.86377 11.5707C8.05349 11.7643 8.22911 11.9699 8.39062 12.1875C9.24234 13.3125 9.75 14.6447 9.75 15.75C9.75 16.7925 9.49594 17.6142 9.01547 18.1261Z" fill-rule="nonzero" transform="matrix(1 0 0 1 4.5 1.5)" fill="rgb(233, 78, 60)"/>
	</g>
</svg>
