<?xml version="1.0" encoding="utf-8" ?>
<svg xmlns="http://www.w3.org/2000/svg" xmlns:xlink="http://www.w3.org/1999/xlink" width="24" height="24" viewBox="0 0 24 24">
	<defs>
		<clipPath id="clipPath9157080240">
			<path d="M0 0L24 0L24 24L0 24L0 0Z" fill-rule="nonzero" transform="matrix(1 0 0 1 0 0)"/>
		</clipPath>
	</defs>
	<g clip-path="url(#clipPath9157080240)">
		<path d="M15.683 9.7472C16.1807 9.74857 16.6594 9.65401 17.1192 9.46354C17.5789 9.27306 17.9843 9.00136 18.3352 8.64845L21.9445 5.04142C22.23 4.75595 22.2563 4.29142 21.9844 3.99189C21.8404 3.83312 21.6613 3.75114 21.447 3.74596C21.2327 3.74078 21.0498 3.81401 20.8983 3.96564L17.6813 7.18032C17.5688 7.29265 17.4331 7.34881 17.2742 7.34881C17.1152 7.34881 16.9795 7.29265 16.867 7.18032C16.6425 6.95626 16.6547 6.57751 16.8788 6.35345L20.0817 3.15048C20.2332 2.999 20.3063 2.81619 20.3012 2.60204C20.296 2.3879 20.2141 2.20883 20.0555 2.06486C19.9876 2.0033 19.9109 1.95614 19.8253 1.92339C19.7398 1.89063 19.6512 1.87451 19.5595 1.87501C19.4557 1.87508 19.3558 1.89502 19.2599 1.93481C19.164 1.97461 19.0793 2.03124 19.006 2.1047L15.8058 5.30439C15.6933 5.41671 15.5576 5.47287 15.3987 5.47287C15.2397 5.47287 15.104 5.41671 14.9916 5.30439C14.7675 5.08032 14.7792 4.70157 15.0033 4.47751L18.2063 1.27548C18.3577 1.124 18.4309 0.941192 18.4257 0.727045C18.4205 0.512897 18.3386 0.333834 18.18 0.189856C18.1122 0.1283 18.0354 0.081144 17.9499 0.0483885C17.8643 0.015633 17.7757 -0.000492692 17.6841 1.14441e-05C17.5802 0.000134408 17.4804 0.0200915 17.3845 0.0598826C17.2886 0.0996738 17.2039 0.156279 17.1305 0.229699L13.5235 3.83673C13.1705 4.1877 12.8988 4.59312 12.7083 5.05298C12.5178 5.51284 12.4233 5.99164 12.4247 6.48939L12.4247 6.87517C12.4248 6.97477 12.4058 7.07058 12.3677 7.16261C12.3296 7.25464 12.2753 7.33586 12.2049 7.40626L10.5356 9.07595C10.499 9.11261 10.4548 9.13094 10.403 9.13094C10.3512 9.13094 10.3069 9.11261 10.2703 9.07595L2.14783 0.95298C2.0019 0.806884 1.82568 0.733561 1.61919 0.733012C1.4127 0.732463 1.2361 0.804849 1.08939 0.950168C0.379235 1.65376 1.60933e-05 2.64704 1.60933e-05 3.8222C-0.00467142 5.76282 1.01533 7.99407 2.66205 9.63845L6.66752 13.6439C6.95216 13.928 7.28029 14.1469 7.65189 14.3006C8.0235 14.4543 8.41037 14.5312 8.81252 14.5313C8.94072 14.5313 9.0684 14.5232 9.19556 14.5069C9.32272 14.4905 9.44832 14.4662 9.57236 14.4338C9.6035 14.4256 9.63504 14.4194 9.66696 14.4153C9.69889 14.4111 9.73095 14.409 9.76314 14.4089C9.85728 14.4089 9.94817 14.4261 10.0358 14.4605C10.1234 14.4949 10.2018 14.5441 10.2708 14.6081L10.8047 15.1013C10.8736 15.1716 10.9266 15.2523 10.9639 15.3434C11.0013 15.4345 11.02 15.5292 11.0203 15.6277L11.0203 15.8874C11.0196 16.1825 11.0752 16.4667 11.187 16.7399C11.2988 17.0131 11.4584 17.2547 11.6658 17.4647L15.8869 21.757L15.8911 21.7617C16.3789 22.2495 16.9677 22.4933 17.6575 22.4933C18.3473 22.4932 18.9361 22.2493 19.4238 21.7615C19.9116 21.2737 20.1554 20.6849 20.1554 19.9951C20.1553 19.3053 19.9114 18.7165 19.4236 18.2288L13.0964 11.9016C13.0598 11.865 13.0414 11.8207 13.0414 11.7689C13.0414 11.7171 13.0598 11.6729 13.0964 11.6363L14.7656 9.96704C14.836 9.89665 14.9171 9.84241 15.0091 9.80431C15.101 9.76622 15.1967 9.74718 15.2963 9.7472L15.683 9.7472Z" fill-rule="nonzero" transform="matrix(1 0 0 1 1.07811 0.749989)" fill="rgb(233, 78, 60)"/>
		<path d="M9.13734 2.08342C8.53696 2.08218 7.95932 1.96691 7.40445 1.73761C6.84957 1.5083 6.35908 1.18217 5.93297 0.759201L5.28328 0.109514C5.21009 0.0365047 5.12181 0 5.01844 0C4.91506 0 4.82678 0.0365047 4.75359 0.109514L0.769218 4.07326C0.0590619 4.78342 -0.194532 5.82873 0.157031 6.85248C0.166869 6.88132 0.177614 6.90982 0.189267 6.93797C0.200919 6.96613 0.213455 6.99388 0.226874 7.02123C0.699843 7.98967 1.61766 8.55217 2.62172 8.55217C2.97045 8.55303 3.30588 8.48666 3.62801 8.35306C3.95013 8.21946 4.23408 8.02896 4.47984 7.78155L9.79359 2.44248C9.81623 2.41939 9.83295 2.3926 9.84377 2.36212C9.85458 2.33164 9.85848 2.30031 9.85547 2.26811L9.85547 2.25592C9.85107 2.19427 9.82509 2.14373 9.77751 2.10428C9.72994 2.06484 9.67546 2.04867 9.61406 2.05576C9.53491 2.06454 9.45557 2.07124 9.37607 2.07585C9.29656 2.08046 9.21698 2.08299 9.13734 2.08342Z" fill-rule="nonzero" transform="matrix(1 0 0 1 0.753282 14.6978)" fill="rgb(233, 78, 60)"/>
	</g>
</svg>
