<?xml version="1.0" standalone="no"?><!DOCTYPE svg PUBLIC "-//W3C//DTD SVG 1.1//EN" "http://www.w3.org/Graphics/SVG/1.1/DTD/svg11.dtd"><svg t="1765895399965" class="icon" viewBox="0 0 1024 1024" version="1.1" xmlns="http://www.w3.org/2000/svg" p-id="5113" xmlns:xlink="http://www.w3.org/1999/xlink" width="200" height="200"><path d="M737.28 279.04c-12.8-10.24-28.16-15.36-43.52-12.8-15.36 2.56-30.72 12.8-35.84 28.16-12.8 28.16-25.6 48.64-38.4 66.56-12.8-94.72-33.28-192-110.08-289.28-12.8-15.36-30.72-20.48-51.2-17.92-17.92 5.12-33.28 17.92-38.4 35.84C384 202.24 332.8 261.12 281.6 322.56l-7.68 7.68c-56.32 66.56-112.64 135.68-117.76 263.68-5.12 117.76 43.52 209.92 115.2 268.8C343.04 921.6 435.2 947.2 522.24 947.2c87.04-2.56 171.52-28.16 238.08-89.6 66.56-61.44 102.4-153.6 99.84-276.48-2.56-102.4-48.64-227.84-122.88-302.08z m-48.64 504.32c-40.96 40.96-102.4 61.44-168.96 61.44-66.56 2.56-133.12-20.48-184.32-61.44-48.64-40.96-81.92-99.84-79.36-186.88 2.56-89.6 38.4-138.24 92.16-199.68 2.56-2.56 5.12-5.12 7.68-10.24 38.4-43.52 81.92-94.72 117.76-168.96 25.6 61.44 33.28 125.44 43.52 202.24 2.56 15.36 2.56 28.16 5.12 43.52 2.56 17.92 12.8 30.72 28.16 38.4 15.36 7.68 33.28 7.68 48.64 0 43.52-23.04 76.8-53.76 107.52-97.28 30.72 51.2 48.64 117.76 51.2 176.64 2.56 99.84-28.16 161.28-69.12 202.24z" p-id="5114" fill="#ff3f34"></path></svg>