<?xml version="1.0" encoding="utf-8" ?>
<svg xmlns="http://www.w3.org/2000/svg" xmlns:xlink="http://www.w3.org/1999/xlink" width="32" height="32" viewBox="0 0 32 32">
	<defs>
		<clipPath id="clipPath4618768449">
			<path d="M0 0L32 0L32 32L0 32L0 0Z" fill-rule="nonzero" transform="matrix(1 0 0 1 0 0)"/>
		</clipPath>
	</defs>
	<g clip-path="url(#clipPath4618768449)">
		<path d="M13 0C5.83187 0 0 5.83187 0 13C0 20.1681 5.83187 26 13 26C20.1681 26 26 20.1681 26 13C26 5.83187 20.1681 0 13 0ZM17.6731 13.5812L10.52 17.9025C10.4156 17.965 10.3026 17.997 10.1809 17.9982C10.0593 17.9995 9.94558 17.97 9.83989 17.9098C9.7342 17.8495 9.65096 17.7666 9.59015 17.6612C9.52935 17.5558 9.4993 17.4423 9.5 17.3206L9.5 8.67937C9.49929 8.5577 9.52934 8.44417 9.59015 8.33877C9.65095 8.23338 9.7342 8.15053 9.83989 8.09024C9.94558 8.02995 10.0593 8.00045 10.1809 8.00175C10.3026 8.00305 10.4156 8.03497 10.52 8.0975L17.6731 12.4187C17.8908 12.5514 17.9996 12.7451 17.9996 13C17.9996 13.2549 17.8908 13.4486 17.6731 13.5812Z" fill-rule="nonzero" transform="matrix(1 0 0 1 3 3)" fill="rgb(255, 255, 255)"/>
	</g>
</svg>
