<?xml version="1.0" encoding="utf-8" ?>
<svg xmlns="http://www.w3.org/2000/svg" xmlns:xlink="http://www.w3.org/1999/xlink" width="16" height="16" viewBox="0 0 16 16">
	<defs>
		<clipPath id="clipPath7819847562">
			<path d="M0 0L16 0L16 16L0 16L0 0Z" fill-rule="nonzero" transform="matrix(1 0 0 1 0 0)"/>
		</clipPath>
	</defs>
	<g clip-path="url(#clipPath7819847562)">
		<path d="M12.7716 11.6684L9.83125 8.72812C10.1852 8.25693 10.4553 7.74177 10.6416 7.18266C10.8278 6.62354 10.9206 6.04932 10.92 5.46C10.92 2.44937 8.47062 0 5.46 0C2.44938 0 0 2.44937 0 5.46C0 8.47062 2.44937 10.92 5.46 10.92C6.04932 10.9206 6.62354 10.8278 7.18266 10.6416C7.74177 10.4553 8.25693 10.1852 8.72812 9.83125L11.6684 12.7716C11.823 12.9097 12.0038 12.9758 12.211 12.97C12.4181 12.9642 12.595 12.8881 12.7415 12.7415C12.8881 12.595 12.9642 12.4181 12.97 12.211C12.9758 12.0038 12.9097 11.823 12.7716 11.6684ZM1.56 5.46C1.56 4.38304 1.94076 3.46381 2.70228 2.70228C3.46381 1.94076 4.38304 1.56 5.46 1.56C6.53695 1.56 7.45619 1.94076 8.21772 2.70228C8.97924 3.46381 9.36 4.38304 9.36 5.46C9.36 6.53695 8.97924 7.45619 8.21772 8.21772C7.45619 8.97924 6.53695 9.36 5.46 9.36C4.38358 9.35871 3.4648 8.97749 2.70365 8.21635C1.94251 7.4552 1.56129 6.53642 1.56 5.46Z" fill-rule="nonzero" transform="matrix(1 0 0 1 1.5 1.5)" fill="#757575"/>
	</g>
</svg>
