<?xml version="1.0" encoding="utf-8" ?>
<svg xmlns="http://www.w3.org/2000/svg" xmlns:xlink="http://www.w3.org/1999/xlink" width="24" height="24" viewBox="0 0 24 24">
	<defs>
		<clipPath id="clipPath0297730530">
			<path d="M0 0L24 0L24 24L0 24L0 0Z" fill-rule="nonzero" transform="matrix(1 0 0 1 0 0)"/>
		</clipPath>
	</defs>
	<g clip-path="url(#clipPath0297730530)">
		<path d="M6.38594 0C5.55781 0 4.80391 0.421094 4.41328 1.0793L4.24141 1.36914L3.94453 1.20977C3.66719 1.05938 3.35078 0.979688 3.03437 0.979688C1.92891 0.979688 1.03047 1.90039 1.03047 3.0582C1.03047 4.09336 1.75703 4.95664 2.72969 5.11289L3.02656 5.15977L3.02656 7.2457C5.28828 6.81211 7.55781 6.79258 9.82344 7.2457L9.82344 4.52305L10.0109 4.42148C10.6242 4.09727 11.0305 3.40195 11.0305 2.61875C11.0305 1.49375 10.2219 0.621874 9.25703 0.621874C9.00313 0.621874 8.74922 0.684765 8.51875 0.80625L8.27656 0.93125L8.09687 0.732421C7.675 0.272656 7.05 0 6.38594 0ZM6.425 7.60898C5.425 7.60898 4.42891 7.70273 3.42891 7.88242C3.39375 8.1168 3.37812 8.35898 3.37812 8.60898C3.37812 9.7418 3.7375 10.7652 4.3 11.4879C4.8625 12.2105 5.60859 12.6324 6.425 12.6324C7.24141 12.6324 7.9875 12.2105 8.55 11.4879C9.1125 10.7652 9.47188 9.7418 9.47188 8.60898C9.47188 8.35898 9.45234 8.11289 9.42109 7.87852C8.42109 7.69492 7.425 7.60508 6.425 7.60898ZM4.57734 12.7223L1.09297 13.8824L0 18.2574L8.9875 18.2574L8.42109 14.2848L9.11641 14.1832L9.69844 18.2574L12.8508 18.2574L11.757 13.8824L8.27266 12.7223C7.73359 13.109 7.10078 13.3355 6.425 13.3355C5.74922 13.3355 5.11641 13.109 4.57734 12.7223ZM7.28437 14.7809C7.39225 14.7808 7.48432 14.819 7.5606 14.8953C7.63688 14.9715 7.67501 15.0636 7.675 15.1715C7.67501 15.2794 7.63688 15.3714 7.5606 15.4477C7.48432 15.524 7.39225 15.5621 7.28437 15.5621C7.1765 15.5621 7.08443 15.524 7.00815 15.4477C6.93187 15.3714 6.89374 15.2794 6.89375 15.1715C6.89374 15.0636 6.93187 14.9715 7.00815 14.8953C7.08443 14.819 7.1765 14.7809 7.28437 14.7809ZM7.55781 16.5777C7.66568 16.5777 7.75775 16.6159 7.83402 16.6921C7.9103 16.7684 7.94844 16.8605 7.94844 16.9684C7.94844 17.0762 7.9103 17.1683 7.83402 17.2446C7.75775 17.3208 7.66568 17.359 7.55781 17.359C7.44994 17.359 7.35787 17.3208 7.2816 17.2446C7.20532 17.1683 7.16719 17.0762 7.16719 16.9684C7.16719 16.8605 7.20532 16.7684 7.2816 16.6921C7.35787 16.6159 7.44994 16.5777 7.55781 16.5777Z" fill-rule="nonzero" transform="matrix(1 0 0 1 6.25 3)" fill="currentColor"/>
	</g>
</svg>
