<?xml version="1.0" encoding="utf-8" ?>
<svg xmlns="http://www.w3.org/2000/svg" xmlns:xlink="http://www.w3.org/1999/xlink" width="24" height="24" viewBox="0 0 24 24">
	<defs>
		<clipPath id="clipPath8743360606">
			<path d="M0 0L24 0L24 24L0 24L0 0Z" fill-rule="nonzero" transform="matrix(1 0 0 1 0 0)"/>
		</clipPath>
	</defs>
	<g clip-path="url(#clipPath8743360606)">
		<path d="M9.75 0C4.36547 0 0 4.36547 0 9.75C0 15.1345 4.36547 19.5 9.75 19.5C15.1345 19.5 19.5 15.1345 19.5 9.75C19.5 4.36547 15.1345 0 9.75 0ZM14.25 11.25L9.75 11.25C9.54289 11.25 9.36612 11.1768 9.21967 11.0303C9.07322 10.8839 9 10.7071 9 10.5L9 3.75C9 3.54289 9.07322 3.36612 9.21967 3.21967C9.36612 3.07322 9.54289 3 9.75 3C9.95711 3 10.1339 3.07322 10.2803 3.21967C10.4268 3.36612 10.5 3.54289 10.5 3.75L10.5 9.75L14.25 9.75C14.4571 9.75 14.6339 9.82322 14.7803 9.96967C14.9268 10.1161 15 10.2929 15 10.5C15 10.7071 14.9268 10.8839 14.7803 11.0303C14.6339 11.1768 14.4571 11.25 14.25 11.25Z" fill-rule="nonzero" transform="matrix(1 0 0 1 2.25 2.25)" fill="currentColor"/>
	</g>
</svg>
