<?xml version="1.0" standalone="no"?><!DOCTYPE svg PUBLIC "-//W3C//DTD SVG 1.1//EN" "http://www.w3.org/Graphics/SVG/1.1/DTD/svg11.dtd"><svg t="1766844633927" class="icon" viewBox="0 0 1024 1024" version="1.1" xmlns="http://www.w3.org/2000/svg" p-id="1645" xmlns:xlink="http://www.w3.org/1999/xlink" width="200" height="200"><path d="M658.302 138.326H366.196c-15.118 0-27.384-12.266-27.384-27.384s12.266-27.384 27.384-27.384h292.106c15.118 0 27.384 12.266 27.384 27.384s-12.266 27.384-27.384 27.384zM932.15 256.994H92.348c-15.118 0-27.384-12.266-27.384-27.384s12.266-27.384 27.384-27.384H932.15c15.118 0 27.384 12.266 27.384 27.384s-12.264 27.384-27.384 27.384z" p-id="1646" fill="currentColor"></path><path d="M770.338 942.63H254.16c-43.93 0-79.658-35.728-79.658-79.658V227.576c0-15.118 12.266-27.384 27.384-27.384H822.61c15.118 0 27.384 12.266 27.384 27.384v635.396c0.002 43.93-35.726 79.658-79.656 79.658zM229.272 254.96v608.012c0 13.728 11.16 24.888 24.888 24.888h516.176c13.728 0 24.888-11.16 24.888-24.888V254.96H229.272z" p-id="1647" fill="currentColor"></path><path d="M414.638 826.994c-15.118 0-27.384-12.266-27.384-27.384V343.194c0-15.118 12.266-27.384 27.384-27.384s27.384 12.266 27.384 27.384v456.414c0 15.12-12.266 27.386-27.384 27.386z m219.078 0c-15.118 0-27.384-12.266-27.384-27.384V343.194c0-15.118 12.266-27.384 27.384-27.384s27.384 12.266 27.384 27.384v456.414c0 15.12-12.266 27.386-27.384 27.386z" p-id="1648" fill="currentColor"></path></svg>